<?xml version="1.0" standalone="no"?>
<!DOCTYPE svg PUBLIC "-//W3C//DTD SVG 20010904//EN"
 "http://www.w3.org/TR/2001/REC-SVG-20010904/DTD/svg10.dtd">
<svg version="1.0" xmlns="http://www.w3.org/2000/svg"
 width="1000.000000pt" height="1000.000000pt" viewBox="0 0 1000.000000 1000.000000"
 preserveAspectRatio="xMidYMid meet">
<metadata>
Created by potrace 1.14, written by Peter Selinger 2001-2017
</metadata>
<g transform="translate(0.000000,1000.000000) scale(0.100000,-0.100000)"
fill="#000000" stroke="none">
<path d="M1465 8469 c-111 -13 -140 -18 -210 -40 -71 -21 -174 -71 -209 -99
-150 -123 -224 -275 -271 -555 -25 -151 -25 -515 1 -975 11 -193 24 -405 30
-480 2 -25 5 -178 8 -340 3 -264 2 -303 -15 -373 -28 -116 -70 -192 -145 -264
-110 -106 -240 -155 -439 -167 -33 -2 -66 -4 -72 -5 -10 -1 -13 -37 -13 -146
0 -143 0 -145 23 -146 110 -6 135 -8 157 -12 27 -6 57 -13 105 -23 60 -13 180
-80 232 -129 69 -66 116 -147 144 -248 22 -76 24 -100 23 -327 0 -207 -6 -381
-19 -585 -1 -22 -6 -96 -9 -165 -4 -69 -9 -141 -11 -160 -16 -151 -24 -698
-12 -835 13 -142 20 -188 46 -287 77 -297 241 -448 555 -513 61 -13 166 -19
361 -19 l220 -1 0 130 0 130 -162 1 c-137 1 -192 5 -268 19 -5 1 -12 3 -15 4
-3 1 -15 4 -28 7 -88 16 -213 114 -265 208 -27 48 -65 157 -72 206 -8 52 -14
97 -21 145 -6 49 -6 488 1 615 2 36 6 130 10 210 4 80 9 168 10 195 19 338 25
837 12 945 -41 343 -141 510 -359 600 -32 13 -58 29 -58 35 0 7 25 22 56 34
144 55 260 175 303 316 7 22 15 47 18 55 9 23 12 35 28 130 16 90 22 224 19
445 -3 262 -7 377 -29 795 -17 336 -23 710 -11 820 20 197 59 323 130 415 40
51 60 68 121 104 99 58 196 75 427 75 126 0 148 2 152 15 3 9 4 68 3 131 l-2
115 -210 0 c-115 1 -237 -2 -270 -6z"/>
<path d="M8055 8468 c-2 -7 -3 -67 -2 -133 l2 -119 170 -2 c248 -3 358 -28
454 -104 110 -87 176 -241 198 -465 13 -121 7 -571 -12 -970 -25 -533 -25
-961 0 -1115 3 -19 7 -44 9 -55 2 -11 9 -40 16 -65 7 -25 14 -50 16 -56 1 -6
17 -42 35 -80 58 -117 180 -220 307 -258 35 -11 26 -34 -18 -47 -22 -7 -40
-15 -40 -19 0 -5 -12 -11 -26 -14 -15 -4 -33 -12 -40 -19 -7 -7 -31 -25 -52
-42 -43 -33 -88 -89 -121 -149 -37 -66 -82 -214 -84 -273 -1 -13 -3 -23 -6
-23 -21 0 -19 -557 4 -1090 25 -572 25 -903 0 -1060 -2 -14 -11 -50 -19 -80
-9 -30 -19 -66 -22 -80 -9 -32 -52 -109 -83 -149 -46 -59 -166 -130 -247 -145
-68 -13 -147 -19 -284 -20 l-155 -1 0 -130 0 -130 230 1 c209 0 269 4 345 19
14 3 39 8 55 11 67 12 208 70 242 99 6 5 27 21 45 34 44 32 125 134 152 191
11 25 26 48 31 52 6 4 7 8 2 8 -4 0 0 17 8 38 70 166 94 508 70 992 -4 91 -9
192 -11 225 -1 33 -3 60 -4 60 -1 0 -3 34 -5 75 -4 90 -15 276 -21 345 -2 28
-6 178 -8 335 -3 222 -1 299 11 350 7 36 16 74 18 85 12 53 75 155 130 210
114 114 257 162 513 174 9 1 12 37 12 149 l0 147 -63 -1 c-34 0 -66 2 -71 4
-5 3 -27 7 -50 9 -22 2 -58 9 -81 15 -22 6 -45 12 -51 14 -40 8 -172 85 -209
122 -34 33 -102 124 -98 129 1 2 -5 20 -15 40 -9 21 -17 43 -18 48 -1 6 -3 12
-4 15 -1 3 -3 12 -5 20 -2 8 -8 35 -14 60 -9 41 -7 510 4 660 3 51 6 100 21
355 3 55 7 123 9 150 18 296 24 695 12 845 -24 295 -108 510 -245 635 -80 71
-250 150 -341 157 -17 1 -31 5 -31 8 0 7 -17 8 -308 14 -199 5 -253 4 -257 -6z"/>
<path d="M7758 7515 c-2 -2 -30 -5 -63 -8 -33 -3 -60 -6 -60 -7 0 -2 -9 -4
-20 -5 -32 -5 -104 -32 -176 -68 -55 -27 -75 -44 -126 -112 -74 -96 -266 -341
-294 -373 -10 -12 -19 -24 -19 -27 0 -2 -10 -15 -22 -29 -48 -53 -64 -72 -88
-106 -13 -19 -27 -37 -30 -40 -3 -3 -27 -32 -53 -65 -26 -33 -53 -67 -60 -75
-8 -8 -27 -33 -43 -55 -16 -22 -34 -44 -40 -50 -6 -5 -73 -89 -150 -185 -173
-217 -167 -210 -179 -224 -6 -6 -26 -31 -45 -56 -42 -54 -62 -79 -75 -94 -6
-6 -28 -33 -50 -61 -22 -27 -42 -52 -45 -55 -5 -4 -160 -196 -185 -228 -5 -7
-17 -21 -26 -30 -8 -9 -33 -39 -55 -67 -21 -27 -49 -60 -61 -73 -13 -13 -23
-26 -23 -30 0 -4 -27 -36 -60 -72 -33 -36 -62 -73 -65 -82 -4 -10 -10 -18 -14
-18 -4 0 -32 -30 -62 -67 -30 -37 -66 -80 -81 -95 -16 -16 -28 -31 -28 -33 0
-12 -69 -77 -77 -72 -4 3 -26 8 -48 11 -36 5 -87 15 -165 31 -85 18 -110 22
-115 17 -3 -3 -5 0 -5 7 0 7 -4 10 -9 6 -5 -3 -29 -1 -53 4 -24 6 -59 13 -78
16 -19 3 -82 14 -140 25 -58 11 -117 21 -132 22 -16 1 -28 6 -28 11 0 4 -4 6
-9 3 -5 -3 -33 -1 -62 5 -54 10 -83 15 -149 24 -19 3 -73 11 -120 19 -93 16
-115 19 -240 36 -280 39 -481 43 -725 14 -44 -5 -254 -49 -280 -58 -5 -2 -20
-7 -32 -11 -29 -9 -114 -55 -149 -80 -59 -43 -177 -168 -202 -216 -7 -13 -20
-37 -29 -54 -18 -33 -60 -151 -68 -193 -3 -15 -8 -40 -11 -57 -2 -16 -7 -43
-10 -60 -13 -85 -16 -307 -4 -352 21 -80 76 -188 102 -200 43 -21 66 -21 87
-1 25 23 27 53 4 104 -38 88 -35 176 10 289 35 86 59 135 69 135 4 0 8 6 8 13
0 7 9 23 20 35 11 12 20 24 20 27 0 13 129 131 180 164 30 20 58 40 62 46 4 5
8 6 8 2 0 -4 19 3 43 16 24 14 85 39 135 56 82 28 122 38 187 47 11 1 20 3 20
4 0 3 40 9 110 17 88 10 441 9 560 -1 50 -4 99 -7 110 -7 11 0 35 -4 53 -9 20
-5 32 -5 32 1 0 6 5 7 11 3 6 -3 27 -8 47 -10 65 -5 166 -16 202 -20 35 -5 61
-8 175 -19 33 -3 71 -8 85 -10 14 -2 55 -7 92 -10 37 -3 75 -7 85 -9 15 -3
116 -16 163 -20 21 -3 23 -18 3 -41 -14 -17 -248 -278 -278 -311 -306 -332
-659 -683 -858 -854 -140 -121 -152 -131 -212 -175 -22 -17 -44 -35 -50 -41
-5 -5 -30 -23 -55 -39 -25 -17 -47 -32 -50 -35 -57 -60 -534 -303 -554 -282
-3 3 -6 -1 -6 -8 0 -7 -3 -10 -7 -7 -3 4 -12 2 -20 -4 -7 -6 -13 -9 -13 -6 0
3 -24 -2 -54 -13 -50 -17 -144 -40 -191 -46 -11 -1 -20 -3 -20 -4 0 -19 -391
-33 -484 -18 -142 24 -287 91 -369 171 -36 35 -91 125 -99 162 -1 5 -5 21 -8
35 -3 14 -8 66 -10 117 -5 111 -23 163 -59 163 -33 0 -51 -20 -72 -82 -31 -94
-11 -287 44 -406 23 -50 83 -140 120 -179 39 -41 136 -113 150 -113 7 0 12 -4
12 -8 0 -7 81 -48 165 -82 69 -29 195 -57 295 -67 113 -11 338 -4 404 13 12 3
35 7 51 9 17 2 30 4 30 5 0 2 16 5 55 13 177 34 454 156 650 286 112 75 188
129 212 154 10 9 21 17 25 17 5 0 24 15 44 33 19 17 55 48 80 68 191 157 513
474 774 764 44 49 87 96 95 105 8 8 40 45 70 80 30 36 67 77 82 93 16 15 28
32 28 37 0 6 4 10 8 10 4 0 24 21 45 48 20 26 49 61 64 78 39 44 141 167 166
199 4 6 21 26 38 45 16 19 37 45 46 58 15 21 21 23 72 17 131 -15 202 -24 231
-30 14 -2 52 -7 85 -10 33 -4 71 -8 85 -10 14 -2 52 -6 85 -10 33 -3 71 -8 85
-10 32 -5 155 -18 195 -20 19 -1 30 -7 29 -16 -1 -12 -29 -146 -40 -192 -9
-39 -13 -56 -18 -93 -4 -22 -8 -46 -11 -54 -8 -29 -18 -95 -19 -127 0 -18 -3
-33 -6 -33 -3 0 -6 -20 -8 -44 -1 -24 -5 -54 -8 -67 -10 -43 -12 -332 -3 -390
5 -31 11 -70 13 -85 7 -61 34 -145 76 -239 23 -51 101 -139 143 -160 70 -36
120 -45 232 -41 61 3 124 7 140 11 90 19 123 28 188 50 73 26 230 108 280 148
57 44 225 185 258 217 215 204 390 394 499 540 14 18 30 38 35 44 26 27 105
145 115 171 14 38 5 74 -22 84 -37 14 -55 2 -114 -78 -32 -42 -60 -78 -63 -81
-3 -3 -24 -27 -46 -55 -141 -177 -330 -368 -515 -520 -25 -20 -54 -44 -65 -54
-11 -9 -43 -32 -70 -51 -28 -18 -52 -37 -55 -40 -9 -12 -180 -120 -189 -120
-5 0 -11 -4 -13 -8 -1 -4 -37 -24 -78 -44 -245 -118 -361 -85 -414 117 -24 92
-13 439 19 625 2 14 7 45 10 70 3 25 8 52 10 60 4 13 14 80 20 120 1 8 5 29 9
45 3 17 9 44 11 60 3 17 13 67 22 112 l16 81 236 -1 c130 -1 262 2 294 6 61 8
170 38 222 62 17 7 41 16 54 20 69 21 221 140 221 173 0 5 6 15 14 21 28 23
-4 111 -40 111 -7 0 -26 -17 -41 -37 -43 -58 -95 -103 -140 -122 -18 -7 -33
-17 -33 -21 0 -3 -6 -7 -12 -8 -7 -1 -56 -16 -108 -34 -52 -19 -111 -36 -130
-38 -71 -8 -458 -2 -488 8 -8 3 -9 9 -3 16 5 6 25 72 45 146 20 74 40 142 43
150 7 19 10 29 17 58 3 12 8 27 11 32 3 5 8 20 10 32 6 33 158 492 165 498 3
3 7 14 8 25 2 11 10 32 18 47 8 15 14 32 14 38 0 7 6 26 14 43 8 18 31 75 51
127 20 52 42 106 48 120 5 14 11 30 12 36 2 6 14 35 28 65 14 30 48 106 75
169 56 128 147 327 161 350 16 25 82 165 81 169 -1 2 2 7 7 10 4 3 26 40 47
81 22 41 52 98 68 125 16 28 32 58 35 68 3 9 9 17 14 17 5 0 9 5 9 11 0 6 26
54 57 107 68 114 85 151 79 168 -3 7 0 14 5 16 14 5 -29 48 -49 49 -9 0 -25 2
-34 4 -9 2 -18 2 -20 0z m-699 -787 c-7 -12 -14 -30 -15 -38 -2 -8 -8 -23 -13
-35 -17 -33 -83 -209 -84 -222 0 -7 -4 -13 -9 -13 -4 0 -7 -3 -6 -7 2 -7 -24
-79 -62 -178 -5 -11 -17 -45 -28 -75 -11 -30 -35 -93 -52 -140 -17 -47 -33
-92 -35 -100 -3 -8 -41 -121 -86 -250 -44 -129 -82 -244 -84 -255 -2 -11 -9
-36 -16 -55 -17 -51 -22 -64 -24 -72 -2 -5 -3 -9 -5 -10 -1 -2 -3 -10 -5 -18
-1 -8 -17 -62 -35 -119 -17 -57 -33 -111 -35 -120 -21 -86 -58 -219 -66 -233
-6 -11 -17 -17 -27 -14 -9 3 -30 7 -47 10 -16 3 -86 14 -155 25 -69 11 -143
23 -165 26 -22 4 -51 8 -65 11 -14 2 -41 7 -60 10 -114 18 -167 26 -180 29 -8
2 -23 4 -33 4 -21 1 -17 10 35 72 33 40 142 177 200 253 13 17 37 46 53 67 17
20 48 60 70 89 22 29 48 61 58 72 9 10 17 21 17 26 0 4 14 21 30 39 17 18 30
36 30 42 0 5 4 11 8 13 4 2 37 41 72 88 79 103 82 108 95 123 6 7 26 35 45 62
19 28 40 55 46 60 6 6 26 31 44 58 18 26 37 47 42 47 4 0 8 6 8 13 0 7 8 22
18 33 10 10 28 35 42 54 13 19 27 37 30 40 3 3 24 30 45 60 22 30 45 62 52 70
11 14 212 286 250 339 10 14 27 36 38 50 12 14 32 43 45 63 27 40 40 44 19 6z"/>
</g>
</svg>
